<?xml version="1.0" encoding="UTF-8"?>
<svg version="1.1" xmlns="http://www.w3.org/2000/svg" width="192" height="89">
<path d="M0 0 C63.36 0 126.72 0 192 0 C192 29.37 192 58.74 192 89 C128.64 89 65.28 89 0 89 C0 59.63 0 30.26 0 0 Z " fill="#FAF5E4" transform="translate(0,0)"/>
<path d="M0 0 C6.39358601 0.3208677 13.53065008 0.92560013 19.578125 3.06640625 C22.796993 3.5516936 25.52801088 2.2864455 28.625 1.375 C31.38982046 0.97327963 34.1494147 0.78520509 36.9375 0.625 C37.65228516 0.56957031 38.36707031 0.51414062 39.10351562 0.45703125 C40.94066252 0.34275067 42.78447205 0.34998716 44.625 0.375 C46.625 2.375 46.625 2.375 46.625 5.375 C47.5840625 5.5915625 47.5840625 5.5915625 48.5625 5.8125 C50.625 6.375 50.625 6.375 51.625 7.375 C51.75092074 10.22424301 51.81367742 13.04791608 51.828125 15.8984375 C51.83382507 16.75555328 51.83952515 17.61266907 51.84539795 18.49575806 C51.85486282 20.31324015 51.86138781 22.13073952 51.86523438 23.94824219 C51.87493525 26.73142426 51.90594214 29.51386661 51.9375 32.296875 C51.94403021 34.05989143 51.94928061 35.82291316 51.953125 37.5859375 C51.9654718 38.42039398 51.9778186 39.25485046 51.99053955 40.11459351 C51.96803751 45.94314971 51.96803751 45.94314971 50.25872803 48.09500122 C47.91278977 49.93300489 46.13935784 49.75968929 43.1875 49.78125 C42.12789062 49.80316406 41.06828125 49.82507813 39.9765625 49.84765625 C37.7421875 49.86588542 35.5078125 49.88411458 33.2734375 49.90234375 C32.21382812 49.92425781 31.15421875 49.94617188 30.0625 49.96875 C28.60650391 49.97938477 28.60650391 49.97938477 27.12109375 49.99023438 C24.26239237 50.43089492 23.38420292 51.13897609 21.625 53.375 C20.305 52.715 18.985 52.055 17.625 51.375 C17.625 50.715 17.625 50.055 17.625 49.375 C16.84785645 49.38547363 16.07071289 49.39594727 15.27001953 49.40673828 C11.763379 49.44820282 8.25678994 49.47429578 4.75 49.5 C3.52667969 49.51675781 2.30335937 49.53351563 1.04296875 49.55078125 C-0.70693359 49.56044922 -0.70693359 49.56044922 -2.4921875 49.5703125 C-3.57097168 49.58078613 -4.64975586 49.59125977 -5.76123047 49.60205078 C-8.375 49.375 -8.375 49.375 -10.375 47.375 C-10.55053419 44.28975061 -10.60622797 41.29535798 -10.5703125 38.2109375 C-10.5674826 37.30372955 -10.56465271 36.39652161 -10.56173706 35.46182251 C-10.55052153 32.55774877 -10.52541463 29.65398088 -10.5 26.75 C-10.48997197 24.78385861 -10.48084581 22.8177124 -10.47265625 20.8515625 C-10.45057772 16.02592341 -10.41603865 11.2005136 -10.375 6.375 C-9.74078125 6.08882812 -9.1065625 5.80265625 -8.453125 5.5078125 C-6.21422781 4.51834399 -6.21422781 4.51834399 -5.125 2.25 C-3.375 0.375 -3.375 0.375 0 0 Z " fill="#1D5D5D" transform="translate(28.375,18.625)"/>
<path d="M0 0 C1.0583757 -0.00960754 2.1167514 -0.01921509 3.2071991 -0.02911377 C4.35610123 -0.03336365 5.50500336 -0.03761353 6.6887207 -0.04199219 C8.45745293 -0.0505423 8.45745293 -0.0505423 10.26191711 -0.05926514 C12.7628184 -0.06872686 15.26373222 -0.07525375 17.76464844 -0.07910156 C21.58135969 -0.08878312 25.3975271 -0.11978643 29.21411133 -0.15136719 C31.64314459 -0.15789951 34.0721817 -0.16314908 36.5012207 -0.16699219 C38.20939217 -0.18551239 38.20939217 -0.18551239 39.95207214 -0.20440674 C46.04164376 -0.18739269 50.60951232 0.07452062 55.92700195 3.16113281 C59.39234462 7.53840776 61.04012665 11.0628921 61.08813477 16.61328125 C61.09774231 17.51141541 61.10734985 18.40954956 61.11724854 19.3348999 C61.12149841 20.30365051 61.12574829 21.27240112 61.13012695 22.27050781 C61.13582703 23.27067932 61.1415271 24.27085083 61.1473999 25.30133057 C61.1568494 27.41962629 61.16338368 29.53793671 61.16723633 31.65625 C61.17692266 34.88470404 61.20793894 38.11251621 61.23950195 41.34082031 C61.24603417 43.40071237 61.25128378 45.46060898 61.25512695 47.52050781 C61.26747375 48.4811615 61.27982056 49.44181519 61.2925415 50.43157959 C61.27181827 56.72045443 60.72271282 61.98839224 56.3918457 66.90332031 C52.11368572 70.07638014 50.03192137 71.28362381 44.74633789 71.33813477 C43.12390167 71.35738762 43.12390167 71.35738762 41.46868896 71.37702942 C40.294776 71.38441635 39.12086304 71.39180328 37.91137695 71.39941406 C36.10579315 71.41152168 36.10579315 71.41152168 34.26373291 71.4238739 C31.71156255 71.43772486 29.15937359 71.44844246 26.60717773 71.45629883 C22.70691713 71.47350087 18.80750627 71.51737861 14.9074707 71.56152344 C12.42961236 71.57165101 9.9517468 71.58016691 7.47387695 71.58691406 C6.30806091 71.60442215 5.14224487 71.62193024 3.94110107 71.63996887 C-2.37824232 71.62307332 -6.30429841 71.47160718 -11.07299805 67.16113281 C-14.77859906 63.05492629 -16.18778654 60.10039962 -16.23413086 54.60131836 C-16.2437384 53.67993576 -16.25334595 52.75855316 -16.26324463 51.80924988 C-16.26749451 50.81548843 -16.27174438 49.82172699 -16.27612305 48.79785156 C-16.28182312 47.77311234 -16.28752319 46.74837311 -16.293396 45.69258118 C-16.30284519 43.52301058 -16.30937966 41.35342564 -16.31323242 39.18383789 C-16.32292969 35.87197685 -16.35395086 32.56073859 -16.38549805 29.24902344 C-16.3920291 27.14030316 -16.39727917 25.03157845 -16.40112305 22.92285156 C-16.41346985 21.93516281 -16.42581665 20.94747406 -16.4385376 19.92985535 C-16.41888419 13.83403295 -15.89013951 9.17898664 -11.5378418 4.51660156 C-7.30934998 1.28304899 -5.27723888 0.03858958 0 0 Z M-2.82299805 12.03613281 C-3.23549805 12.73738281 -3.64799805 13.43863281 -4.07299805 14.16113281 C-6.15112305 15.29394531 -6.15112305 15.29394531 -8.07299805 16.16113281 C-8.12234461 21.96352896 -8.15869207 27.76580362 -8.18286133 33.56835938 C-8.19293432 35.54331591 -8.20659326 37.51825747 -8.22387695 39.49316406 C-8.24806844 42.32783699 -8.25946796 45.16231319 -8.26831055 47.99707031 C-8.27863312 48.88357269 -8.28895569 49.77007507 -8.29959106 50.68344116 C-8.29998875 52.84399233 -8.19572339 55.00407 -8.07299805 57.16113281 C-6.23343827 59.42953258 -6.23343827 59.42953258 -3.45922852 59.38818359 C-2.38044434 59.37770996 -1.30166016 59.36723633 -0.19018555 59.35644531 C0.97641602 59.35 2.14301758 59.34355469 3.3449707 59.33691406 C4.56829102 59.32015625 5.79161133 59.30339844 7.05200195 59.28613281 C8.89858398 59.27259766 8.89858398 59.27259766 10.7824707 59.25878906 C13.8308401 59.23515829 16.87882577 59.20221335 19.92700195 59.16113281 C20.58700195 60.48113281 21.24700195 61.80113281 21.92700195 63.16113281 C24.61755476 61.94105337 24.61755476 61.94105337 26.92700195 60.16113281 C28.67160262 60.03987049 30.4206597 59.98149598 32.16918945 59.95019531 C33.23524414 59.92183594 34.30129883 59.89347656 35.3996582 59.86425781 C37.65991257 59.8123576 39.92035411 59.76803232 42.1809082 59.73144531 C43.24954102 59.70050781 44.31817383 59.66957031 45.41918945 59.63769531 C46.89427979 59.60796631 46.89427979 59.60796631 48.39916992 59.57763672 C51.37522849 59.08727976 52.08081454 58.48296495 53.92700195 56.16113281 C54.21318512 53.17187923 54.32338757 50.39539771 54.2902832 47.40722656 C54.29078171 46.550569 54.29128021 45.69391144 54.29179382 44.81129456 C54.28945434 43.00153278 54.27973317 41.19176769 54.26318359 39.38208008 C54.23956176 36.60566266 54.24262702 33.83020349 54.24926758 31.05371094 C54.24369181 29.29654373 54.23658257 27.53938058 54.2277832 25.78222656 C54.22869461 24.9488829 54.22960602 24.11553925 54.23054504 23.25694275 C54.36841893 18.73415097 54.36841893 18.73415097 51.92700195 15.16113281 C50.93700195 15.16113281 49.94700195 15.16113281 48.92700195 15.16113281 C48.78262695 14.52175781 48.63825195 13.88238281 48.48950195 13.22363281 C48.11693014 11.18568135 48.11693014 11.18568135 46.92700195 10.16113281 C44.43025881 10.20019137 41.97842452 10.30628438 39.48950195 10.47363281 C38.40004272 10.54094604 38.40004272 10.54094604 37.28857422 10.60961914 C33.21066249 10.89368209 29.35085268 11.39832629 25.36450195 12.34863281 C21.00417728 13.34027856 18.17602132 12.68436617 13.92700195 11.16113281 C4.95938436 9.14244973 4.95938436 9.14244973 -2.82299805 12.03613281 Z " fill="#F6F2E3" transform="translate(26.072998046875,8.8388671875)"/>
<path d="M0 0 C1.1416864 -0.00960754 2.2833728 -0.01921509 3.45965576 -0.02911377 C4.69919006 -0.03336365 5.93872437 -0.03761353 7.21582031 -0.04199219 C8.48613098 -0.04769226 9.75644165 -0.05339233 11.06524658 -0.05926514 C13.75870345 -0.06872717 16.45204858 -0.07561749 19.14550781 -0.07910156 C22.58651232 -0.08457345 26.02711855 -0.10857237 29.4679985 -0.13707352 C32.75890875 -0.16025613 36.04983986 -0.16215396 39.34082031 -0.16699219 C40.57225769 -0.17933899 41.80369507 -0.19168579 43.07244873 -0.20440674 C49.77566153 -0.18697878 54.95736937 -0.10334772 60.15332031 4.62597656 C63.65398557 9.14567109 65.78685492 12.21550997 65.81860352 17.98632812 C65.82813553 18.94122131 65.83766754 19.8961145 65.8474884 20.87994385 C65.846577 21.90601746 65.84566559 22.93209106 65.84472656 23.98925781 C65.84901169 25.05223083 65.85329681 26.11520386 65.85771179 27.21038818 C65.86345343 29.45975025 65.86395658 31.70913088 65.85961914 33.95849609 C65.85646985 37.38444124 65.87988408 40.80951383 65.90527344 44.23535156 C65.90754764 46.42415256 65.90824937 48.61295587 65.90722656 50.80175781 C65.91643631 51.8197345 65.92564606 52.83771118 65.93513489 53.88653564 C65.89149866 60.66443795 65.34577485 66.80530517 60.82519531 72.21972656 C60.23738281 72.67476563 59.64957031 73.12980469 59.04394531 73.59863281 C58.45613281 74.07171875 57.86832031 74.54480469 57.26269531 75.03222656 C53.88872912 77.2483089 50.89377482 77.29976633 46.97436523 77.33813477 C45.26194893 77.35738762 45.26194893 77.35738762 43.51493835 77.37702942 C41.66337883 77.38810982 41.66337883 77.38810982 39.77441406 77.39941406 C37.87107048 77.41152168 37.87107048 77.41152168 35.92927551 77.4238739 C33.24179432 77.43771439 30.55443578 77.44873096 27.86694336 77.45629883 C24.43369592 77.46735517 21.00109805 77.50175151 17.56807995 77.54147053 C14.28275605 77.57398654 10.99737434 77.57841959 7.71191406 77.58691406 C5.86946358 77.61317619 5.86946358 77.61317619 3.98979187 77.63996887 C-2.44688454 77.62360933 -6.6161173 77.60033378 -11.45605469 73.16113281 C-15.68034813 68.58481491 -17.68461395 64.37096518 -17.76245117 58.13061523 C-17.77843857 57.15577682 -17.79442596 56.18093842 -17.81089783 55.17655945 C-17.81626053 54.13377335 -17.82162323 53.09098724 -17.82714844 52.01660156 C-17.83617691 50.93284744 -17.84520538 49.84909332 -17.85450745 48.73249817 C-17.86899747 46.44205482 -17.87789357 44.15157019 -17.8815918 41.86108398 C-17.89347786 38.37119162 -17.94266986 34.88307364 -17.99316406 31.39355469 C-18.00263011 29.16374557 -18.00986427 26.93392564 -18.01464844 24.70410156 C-18.03418076 23.66738815 -18.05371307 22.63067474 -18.07383728 21.56254578 C-18.03225394 14.82807715 -16.84575654 10.35768224 -12.45605469 5.16113281 C-8.14704611 1.25296224 -5.75202542 0.03896989 0 0 Z M-11.76855469 9.72363281 C-14.11860062 13.11814361 -14.58325498 15.69461305 -14.6171875 19.72094727 C-14.62679504 20.64232986 -14.63640259 21.56371246 -14.64630127 22.51301575 C-14.65055115 23.50677719 -14.65480103 24.50053864 -14.65917969 25.52441406 C-14.66487976 26.54915329 -14.67057983 27.57389252 -14.67645264 28.62968445 C-14.68590183 30.79925504 -14.6924363 32.96883998 -14.69628906 35.13842773 C-14.70598634 38.45028877 -14.7370075 41.76152703 -14.76855469 45.07324219 C-14.77508575 47.18196246 -14.78033581 49.29068718 -14.78417969 51.39941406 C-14.79652649 52.38710281 -14.80887329 53.37479156 -14.82159424 54.39241028 C-14.80194083 60.48823268 -14.27319615 65.14327898 -9.92089844 69.80566406 C-5.64916925 73.0722805 -3.6072545 74.28314651 1.72460938 74.33813477 C3.34704559 74.35738762 3.34704559 74.35738762 5.0022583 74.37702942 C6.17617126 74.38441635 7.35008423 74.39180328 8.55957031 74.39941406 C9.76329285 74.40748581 10.96701538 74.41555756 12.20721436 74.4238739 C14.75938471 74.43772486 17.31157368 74.44844246 19.86376953 74.45629883 C23.76403014 74.47350087 27.663441 74.51737861 31.56347656 74.56152344 C34.0413349 74.57165101 36.51920046 74.58016691 38.99707031 74.58691406 C40.74579437 74.61317619 40.74579437 74.61317619 42.52984619 74.63996887 C48.85118916 74.62306797 52.77085845 74.46767364 57.54394531 70.16113281 C61.62514468 65.74902539 62.64696614 62.50453983 62.72094727 56.61132812 C62.7337825 55.71649719 62.74661774 54.82166626 62.75984192 53.89971924 C62.76722885 52.93926697 62.77461578 51.9788147 62.78222656 50.98925781 C62.79433418 49.49468048 62.79433418 49.49468048 62.8066864 47.96990967 C62.8205065 45.86179331 62.83123791 43.75365477 62.83911133 41.64550781 C62.8506293 39.49635229 62.87107808 37.34722533 62.90063477 35.19824219 C62.94342541 32.08671703 62.95949682 28.97604114 62.96972656 25.86425781 C62.99598869 24.43572479 62.99598869 24.43572479 63.02278137 22.97833252 C63.00302546 16.85053056 62.00604015 12.28837498 58.54394531 7.16113281 C54.59547281 3.33605008 50.55331183 3.04035936 45.22802734 2.98413086 C44.16657501 2.97129562 43.10512268 2.95846039 42.01150513 2.94523621 C40.86978851 2.93784927 39.7280719 2.93046234 38.55175781 2.92285156 C37.37306122 2.91477982 36.19436462 2.90670807 34.97994995 2.89839172 C32.48681097 2.88456627 29.99365318 2.87383724 27.50048828 2.8659668 C23.69039135 2.84872983 19.88115677 2.80482534 16.07128906 2.76074219 C13.64811835 2.75061702 11.22494028 2.74210037 8.80175781 2.73535156 C7.09525558 2.70908943 7.09525558 2.70908943 5.35427856 2.68229675 C-2.65243789 2.70423451 -6.32462957 3.69117525 -11.76855469 9.72363281 Z " fill="#014143" transform="translate(24.4560546875,5.8388671875)"/>
<path d="M0 0 C0 12.21 0 24.42 0 37 C-11.25 39.25 -11.25 39.25 -16.625 40.125 C-18.16027344 40.37636719 -18.16027344 40.37636719 -19.7265625 40.6328125 C-20.47679687 40.75398438 -21.22703125 40.87515625 -22 41 C-22.07413521 35.92801112 -22.12859451 30.85633732 -22.16479492 25.78393555 C-22.17988516 24.05829373 -22.20035975 22.33269028 -22.22631836 20.60717773 C-22.26269209 18.12734512 -22.27972359 15.64801936 -22.29296875 13.16796875 C-22.30845261 12.39599655 -22.32393646 11.62402435 -22.33988953 10.82865906 C-22.34156451 5.50254318 -22.34156451 5.50254318 -20.66455078 3.03515625 C-18.1123321 1.4479742 -15.64795188 1.21200735 -12.6875 0.8125 C-11.57761719 0.65394531 -10.46773437 0.49539062 -9.32421875 0.33203125 C-6 0 -6 0 0 0 Z " fill="#F7F3E5" transform="translate(72,22)"/>
<path d="M0 0 C3.68173732 0.14013533 7.33875201 0.59651553 11 1 C12.09634766 1.11021484 12.09634766 1.11021484 13.21484375 1.22265625 C17.75 1.75 17.75 1.75 20 4 C20.17525055 6.79684797 20.23143189 9.4932808 20.1953125 12.2890625 C20.1924826 13.10748627 20.18965271 13.92591003 20.18673706 14.76913452 C20.17552532 17.38790393 20.15041929 20.00633364 20.125 22.625 C20.11497147 24.39843257 20.1058454 26.17187049 20.09765625 27.9453125 C20.07558278 32.29700626 20.04104644 36.6484455 20 41 C16.6862709 40.36036805 13.37425665 39.71226081 10.0625 39.0625 C9.11697266 38.88009766 8.17144531 38.69769531 7.19726562 38.50976562 C6.29814453 38.33251953 5.39902344 38.15527344 4.47265625 37.97265625 C3.64000244 37.81031494 2.80734863 37.64797363 1.94946289 37.48071289 C0 37 0 37 -1 36 C-1.10091475 33.41810554 -1.13971499 30.863535 -1.1328125 28.28125 C-1.13376923 27.50817505 -1.13472595 26.7351001 -1.13571167 25.93859863 C-1.13639341 24.30102456 -1.13453957 22.66344781 -1.13037109 21.02587891 C-1.12502271 18.51068079 -1.13031626 15.99566127 -1.13671875 13.48046875 C-1.13605797 11.89322877 -1.1347768 10.3059889 -1.1328125 8.71875 C-1.13483673 7.96146606 -1.13686096 7.20418213 -1.13894653 6.4239502 C-1.11495132 1.11495132 -1.11495132 1.11495132 0 0 Z " fill="#FAF5E5" transform="translate(27,22)"/>
<path d="M0 0 C6.39358601 0.3208677 13.53065008 0.92560013 19.578125 3.06640625 C22.796993 3.5516936 25.52801088 2.2864455 28.625 1.375 C31.38982046 0.97327963 34.1494147 0.78520509 36.9375 0.625 C37.65228516 0.56957031 38.36707031 0.51414062 39.10351562 0.45703125 C40.94066252 0.34275067 42.78447205 0.34998716 44.625 0.375 C46.625 2.375 46.625 2.375 46.625 5.375 C47.615 5.705 48.605 6.035 49.625 6.375 C48.965 6.705 48.305 7.035 47.625 7.375 C47.295 18.265 46.965 29.155 46.625 40.375 C45.635 40.045 44.645 39.715 43.625 39.375 C43.625 27.495 43.625 15.615 43.625 3.375 C40.53125 3.82875 37.4375 4.2825 34.25 4.75 C33.27627441 4.88841309 32.30254883 5.02682617 31.29931641 5.16943359 C30.14955322 5.34466553 30.14955322 5.34466553 28.9765625 5.5234375 C28.19104004 5.63864746 27.40551758 5.75385742 26.59619141 5.87255859 C24.407936 6.2516996 24.407936 6.2516996 22.625 8.375 C22.37943629 11.09500357 22.25143514 13.72074257 22.2109375 16.4453125 C22.19157135 17.24154022 22.1722052 18.03776794 22.1522522 18.85812378 C22.09239526 21.40530634 22.04604721 23.95253395 22 26.5 C21.96182579 28.2252803 21.92277439 29.95054143 21.8828125 31.67578125 C21.78668891 35.90869876 21.70268092 40.14170549 21.625 44.375 C20.965 44.375 20.305 44.375 19.625 44.375 C19.60518066 43.29492676 19.58536133 42.21485352 19.56494141 41.10205078 C19.48898377 37.10246087 19.40025184 33.10323948 19.30761719 29.10400391 C19.26928659 27.37165593 19.23444094 25.63922726 19.203125 23.90673828 C19.15756235 21.41930251 19.09955497 18.93242434 19.0390625 16.4453125 C19.02751129 15.66817902 19.01596008 14.89104553 19.00405884 14.09036255 C19.03706232 9.76849025 19.03706232 9.76849025 16.625 6.375 C13.94282979 5.68660153 13.94282979 5.68660153 10.875 5.25 C9.84890625 5.08242188 8.8228125 4.91484375 7.765625 4.7421875 C4.15876818 4.25887555 4.15876818 4.25887555 -1.375 4.375 C-1.705 15.925 -2.035 27.475 -2.375 39.375 C-4.375 37.375 -4.375 37.375 -4.60205078 34.39404297 C-4.58634033 32.52449951 -4.58634033 32.52449951 -4.5703125 30.6171875 C-4.5674826 29.95413605 -4.56465271 29.29108459 -4.56173706 28.60794067 C-4.55053435 26.48844417 -4.52543051 24.36936896 -4.5 22.25 C-4.48997028 20.81380818 -4.48084441 19.37760975 -4.47265625 17.94140625 C-4.450595 14.41913372 -4.41606494 10.89710797 -4.375 7.375 C-5.365 7.87 -5.365 7.87 -6.375 8.375 C-6.705 20.915 -7.035 33.455 -7.375 46.375 C0.10392395 46.62451615 0.10392395 46.62451615 7.58349609 46.85302734 C8.51242676 46.8886377 9.44135742 46.92424805 10.3984375 46.9609375 C11.35153809 46.9923584 12.30463867 47.0237793 13.28662109 47.05615234 C15.625 47.375 15.625 47.375 17.625 49.375 C13.33338953 49.43283842 9.04187855 49.4685412 4.75 49.5 C3.52667969 49.51675781 2.30335937 49.53351563 1.04296875 49.55078125 C-0.70693359 49.56044922 -0.70693359 49.56044922 -2.4921875 49.5703125 C-3.57097168 49.58078613 -4.64975586 49.59125977 -5.76123047 49.60205078 C-8.375 49.375 -8.375 49.375 -10.375 47.375 C-10.55053419 44.28975061 -10.60622797 41.29535798 -10.5703125 38.2109375 C-10.5674826 37.30372955 -10.56465271 36.39652161 -10.56173706 35.46182251 C-10.55052153 32.55774877 -10.52541463 29.65398088 -10.5 26.75 C-10.48997197 24.78385861 -10.48084581 22.8177124 -10.47265625 20.8515625 C-10.45057772 16.02592341 -10.41603865 11.2005136 -10.375 6.375 C-9.74078125 6.08882812 -9.1065625 5.80265625 -8.453125 5.5078125 C-6.21422781 4.51834399 -6.21422781 4.51834399 -5.125 2.25 C-3.375 0.375 -3.375 0.375 0 0 Z " fill="#074649" transform="translate(28.375,18.625)"/>
<path d="M0 0 C4.86150367 2.08757733 6.97361756 5.18838005 9 10 C9.6644473 13.75586821 9.65581912 17.41240288 9.59375 21.21875 C9.59379028 22.27606323 9.59383057 23.33337646 9.59387207 24.42272949 C9.58853351 26.64825415 9.57102259 28.87377939 9.54199219 31.09912109 C9.50012534 34.48984914 9.50093133 37.87858803 9.5078125 41.26953125 C9.49731883 43.44011786 9.48437979 45.6106943 9.46875 47.78125 C9.46854858 48.78667847 9.46834717 49.79210693 9.46813965 50.82800293 C9.35614355 57.54691796 8.73195589 63.65953421 4.31640625 69.05859375 C3.73761719 69.51363281 3.15882812 69.96867187 2.5625 70.4375 C1.98628906 70.91058594 1.41007812 71.38367188 0.81640625 71.87109375 C-2.58055849 73.9823256 -5.84039233 74.1167647 -9.76855469 74.02172852 C-10.70922791 74.00163223 -11.64990112 73.98153595 -12.61907959 73.96083069 C-13.62650208 73.93379562 -14.63392456 73.90676056 -15.671875 73.87890625 C-16.70942932 73.85529526 -17.74698364 73.83168427 -18.815979 73.80735779 C-22.12746229 73.73083034 -25.43870529 73.6467587 -28.75 73.5625 C-30.99608202 73.50926841 -33.24217574 73.45652808 -35.48828125 73.40429688 C-40.99233594 73.27522995 -46.49621237 73.13996973 -52 73 C-52 72.67 -52 72.34 -52 72 C-36.49 72 -20.98 72 -5 72 C-5 71.34 -5 70.68 -5 70 C-3 68.66666667 -1 67.33333333 1 66 C4.50956274 62.12737904 5.11280111 58.56432614 5.17700195 53.45019531 C5.18983719 52.55536438 5.20267242 51.66053345 5.21589661 50.73858643 C5.22328354 49.77813416 5.23067047 48.81768188 5.23828125 47.828125 C5.246353 46.83174011 5.25442474 45.83535522 5.26274109 44.80877686 C5.27656119 42.7006605 5.2872926 40.59252196 5.29516602 38.484375 C5.30668398 36.33521948 5.32713277 34.18609251 5.35668945 32.03710938 C5.3994801 28.92558421 5.41555151 25.81490833 5.42578125 22.703125 C5.44328934 21.75076965 5.46079742 20.79841431 5.47883606 19.81719971 C5.46117677 14.33972077 4.7704864 10.50375895 1.95768738 5.76434326 C0.92648576 3.86456503 0.4424072 2.10806697 0 0 Z " fill="#0B4F51" transform="translate(81,9)"/>
<path d="M0 0 C2.0625 0.4375 2.0625 0.4375 4 1 C4.07411371 6.49923749 4.12858464 11.99818479 4.16479492 17.49780273 C4.17988873 19.36894799 4.20036589 21.24005783 4.22631836 23.11108398 C4.26267593 25.79940526 4.27972015 28.48725913 4.29296875 31.17578125 C4.30845261 32.01337479 4.32393646 32.85096832 4.33988953 33.71394348 C4.34158882 39.56777995 4.34158882 39.56777995 2.63769531 41.72375488 C0.25188155 43.58300376 -1.55210212 43.34044282 -4.54296875 43.29296875 C-6.15268555 43.2784668 -6.15268555 43.2784668 -7.79492188 43.26367188 C-8.91447266 43.23853516 -10.03402344 43.21339844 -11.1875 43.1875 C-12.31865234 43.17396484 -13.44980469 43.16042969 -14.61523438 43.14648438 C-17.41063317 43.11109958 -20.20507892 43.06172948 -23 43 C-20.33837891 39.09472656 -20.33837891 39.09472656 -17.29296875 38.2421875 C-16.26816406 38.12101562 -15.24335937 37.99984375 -14.1875 37.875 C-9.87529217 37.3393899 -6.10613305 36.4183719 -2 35 C-1.97494385 33.97527588 -1.9498877 32.95055176 -1.92407227 31.89477539 C-1.83015516 28.10590324 -1.72989683 24.31722119 -1.62768555 20.52856445 C-1.58427703 18.88635697 -1.54260642 17.24410261 -1.50268555 15.60180664 C-1.4451256 13.24611255 -1.38139108 10.89065572 -1.31640625 8.53515625 C-1.29133751 7.42733543 -1.29133751 7.42733543 -1.26576233 6.2971344 C-1.11387171 1.11387171 -1.11387171 1.11387171 0 0 Z " fill="#246161" transform="translate(76,25)"/>
<path d="M0 0 C1.65 0 3.3 0 5 0 C6.65 3.3 8.3 6.6 10 10 C11.32 6.7 12.64 3.4 14 0 C15.65 0 17.3 0 19 0 C19 6.27 19 12.54 19 19 C18.01 19 17.02 19 16 19 C15.67 15.37 15.34 11.74 15 8 C13.68 10.97 12.36 13.94 11 17 C10.01 17 9.02 17 8 17 C7.01 14.69 6.02 12.38 5 10 C4.67 12.97 4.34 15.94 4 19 C2.68 19 1.36 19 0 19 C0 12.73 0 6.46 0 0 Z " fill="#185557" transform="translate(101,17)"/>
<path d="M0 0 C0.99 0.33 1.98 0.66 3 1 C2.514104 2.11205811 2.02820801 3.22411621 1.52758789 4.36987305 C-0.31483156 9.30467135 -0.44072656 13.85953127 -0.44140625 19.08203125 C-0.45461411 20.01802658 -0.46782196 20.95402191 -0.48143005 21.91838074 C-0.52205053 24.88311855 -0.54393439 27.84754817 -0.5625 30.8125 C-0.58630016 33.79521241 -0.61437591 36.77763537 -0.65428162 39.76017761 C-0.67861514 41.6097756 -0.6934928 43.45952758 -0.69789124 45.3092804 C-0.70807785 46.1441246 -0.71826447 46.97896881 -0.72875977 47.83911133 C-0.73517235 48.93875969 -0.73517235 48.93875969 -0.74171448 50.06062317 C-1 52 -1 52 -3 55 C-3.07610425 47.9708551 -3.12862273 40.94181658 -3.16479492 33.91235352 C-3.17987543 31.5213626 -3.20034277 29.13039932 -3.22631836 26.73950195 C-3.26273306 23.30152565 -3.27973399 19.86391531 -3.29296875 16.42578125 C-3.30845261 15.35789871 -3.32393646 14.29001617 -3.33988953 13.18977356 C-3.34196413 4.02808825 -3.34196413 4.02808825 0 0 Z " fill="#0E5052" transform="translate(10,14)"/>
<path d="M0 0 C0.33 0 0.66 0 1 0 C1.33 11.22 1.66 22.44 2 34 C5.86456624 35.5458265 8.80026892 36.44823813 12.8125 37.125 C13.78832031 37.29257812 14.76414062 37.46015625 15.76953125 37.6328125 C16.87361328 37.81457031 16.87361328 37.81457031 18 38 C18 38.33 18 38.66 18 39 C11.73 39 5.46 39 -1 39 C-1.02290785 33.60647411 -1.04283526 28.21311579 -1.05493164 22.81958008 C-1.05997231 20.98331125 -1.06680477 19.14704646 -1.07543945 17.31079102 C-1.08751672 14.67723599 -1.09323081 12.04373384 -1.09765625 9.41015625 C-1.10281754 8.58411392 -1.10797882 7.75807159 -1.11329651 6.90699768 C-1.11349205 4.93763632 -1.06204152 2.96838386 -1 1 C-0.67 0.67 -0.34 0.34 0 0 Z " fill="#9AF0DD" transform="translate(22,26)"/>
<path d="M0 0 C2 2 2 2 2 5 C2.99 5.33 3.98 5.66 5 6 C4.01 6.495 4.01 6.495 3 7 C2.67 17.89 2.34 28.78 2 40 C1.01 39.67 0.02 39.34 -1 39 C-1 27.12 -1 15.24 -1 3 C-3.97 3 -6.94 3 -10 3 C-10.66 2.34 -11.32 1.68 -12 1 C-7.99047425 -0.33650858 -4.17983803 -0.20225023 0 0 Z " fill="#03363A" transform="translate(73,19)"/>
<path d="M0 0 C1.32 0 2.64 0 4 0 C4.99 2.31 5.98 4.62 7 7 C7.66 4.69 8.32 2.38 9 0 C10.32 0 11.64 0 13 0 C9.56969083 13.45362392 9.56969083 13.45362392 7 18 C4.3125 18.9375 4.3125 18.9375 2 19 C2 18.01 2 17.02 2 16 C2.66 15.67 3.32 15.34 4 15 C3.79503906 14.25234375 3.59007813 13.5046875 3.37890625 12.734375 C3.10949219 11.74953125 2.84007813 10.7646875 2.5625 9.75 C2.29566406 8.77546875 2.02882813 7.8009375 1.75390625 6.796875 C1.14455416 4.53627347 0.55761745 2.27377991 0 0 Z " fill="#0C4B4D" transform="translate(122,22)"/>
<path d="M0 0 C4 1 4 1 5.265625 2.62890625 C6.17708333 4.41927083 7.08854167 6.20963542 8 8 C8.33 5.69 8.66 3.38 9 1 C9.66 1 10.32 1 11 1 C11 5.62 11 10.24 11 15 C9.68 14.67 8.36 14.34 7 14 C5.25 10.9375 5.25 10.9375 4 8 C3.67 10.31 3.34 12.62 3 15 C2.01 15 1.02 15 0 15 C0 10.05 0 5.1 0 0 Z " fill="#124F52" transform="translate(100,42)"/>
<path d="M0 0 C0.66 0 1.32 0 2 0 C2.33 1.65 2.66 3.3 3 5 C3.804375 4.979375 4.60875 4.95875 5.4375 4.9375 C8 5 8 5 9 6 C9.27314815 11.73611111 9.27314815 11.73611111 9 14 C8.34 14.66 7.68 15.32 7 16 C4.69 15.67 2.38 15.34 0 15 C0 10.05 0 5.1 0 0 Z " fill="#044043" transform="translate(142,42)"/>
<path d="M0 0 C0.99 0.103125 1.98 0.20625 3 0.3125 C5.15502531 3.54503796 5.46856135 4.56400923 5 8.3125 C3.8125 10.1875 3.8125 10.1875 2 11.3125 C-1.34192692 11.06796876 -2.60543557 10.70706443 -5 8.3125 C-5.25 5.3125 -5.25 5.3125 -5 2.3125 C-3 0.3125 -3 0.3125 0 0 Z " fill="#1D5255" transform="translate(169,46.6875)"/>
<path d="M0 0 C0.99 0.103125 1.98 0.20625 3 0.3125 C5.15502531 3.54503796 5.46856135 4.56400923 5 8.3125 C3.8125 10.1875 3.8125 10.1875 2 11.3125 C-1.34192692 11.06796876 -2.60543557 10.70706443 -5 8.3125 C-5.25 5.3125 -5.25 5.3125 -5 2.3125 C-3 0.3125 -3 0.3125 0 0 Z " fill="#194F52" transform="translate(118,46.6875)"/>
<path d="M0 0 C3.625 0.375 3.625 0.375 7 1 C7.75 3.75 7.75 3.75 8 7 C6.375 9.4375 6.375 9.4375 4 11 C-0.3 10.7 -0.3 10.7 -2 9 C-2.1875 5.5625 -2.1875 5.5625 -2 2 C-1.34 1.34 -0.68 0.68 0 0 Z " fill="#436C6D" transform="translate(155,47)"/>
<path d="M0 0 C0.33 0 0.66 0 1 0 C1 9.9 1 19.8 1 30 C8.80803876 30.24953055 8.80803876 30.24953055 16.61669922 30.47802734 C17.58623535 30.5136377 18.55577148 30.54924805 19.5546875 30.5859375 C20.54968262 30.6173584 21.54467773 30.6487793 22.56982422 30.68115234 C25 31 25 31 27 33 C22.70845978 33.0867562 18.41714332 33.1403089 14.125 33.1875 C12.29001953 33.22520508 12.29001953 33.22520508 10.41796875 33.26367188 C8.66806641 33.27817383 8.66806641 33.27817383 6.8828125 33.29296875 C5.26463623 33.31653442 5.26463623 33.31653442 3.61376953 33.34057617 C2.31995361 33.17199097 2.31995361 33.17199097 1 33 C-1.48363727 29.27454409 -1.16338803 27.57229631 -0.9765625 23.14453125 C-0.95153656 22.48289474 -0.92651062 21.82125824 -0.90072632 21.13957214 C-0.81866907 19.03001566 -0.7220279 16.92141575 -0.625 14.8125 C-0.5667456 13.38089823 -0.50944263 11.9492574 -0.453125 10.51757812 C-0.31311345 7.01119864 -0.16001787 3.50552988 0 0 Z " fill="#004849" transform="translate(19,35)"/>
<path d="M0 0 C1.65 0 3.3 0 5 0 C5 6.27 5 12.54 5 19 C4.01 19 3.02 19 2 19 C1.67 15.37 1.34 11.74 1 8 C0.34 8.66 -0.32 9.32 -1 10 C-2.15837626 5.94568308 -1.83691257 3.78187881 0 0 Z " fill="#044749" transform="translate(115,17)"/>
<path d="M0 0 C0.33 0 0.66 0 1 0 C1 12.87 1 25.74 1 39 C-5.6 39 -12.2 39 -19 39 C-19 38.67 -19 38.34 -19 38 C-18.20335937 37.87882812 -17.40671875 37.75765625 -16.5859375 37.6328125 C-14.99652344 37.38144531 -14.99652344 37.38144531 -13.375 37.125 C-12.33085938 36.96257813 -11.28671875 36.80015625 -10.2109375 36.6328125 C-6.48326005 35.96866616 -6.48326005 35.96866616 -1 34 C-0.67 22.78 -0.34 11.56 0 0 Z " fill="#99ECD9" transform="translate(75,26)"/>
<path d="M0 0 C0.99 0 1.98 0 3 0 C3.33 2.64 3.66 5.28 4 8 C4.66 7.01 5.32 6.02 6 5 C6.99 5 7.98 5 9 5 C8.443125 6.36125 8.443125 6.36125 7.875 7.75 C6.69640701 10.88097015 6.69640701 10.88097015 7.875 13.375 C8.24625 13.91125 8.6175 14.4475 9 15 C7.68 14.67 6.36 14.34 5 14 C5 13.34 5 12.68 5 12 C4.34 12 3.68 12 3 12 C3 12.99 3 13.98 3 15 C2.01 15 1.02 15 0 15 C0 10.05 0 5.1 0 0 Z " fill="#326061" transform="translate(175,42)"/>
<path d="M0 0 C2.5 0.25 2.5 0.25 4.5 2.25 C4.5 3.57 4.5 4.89 4.5 6.25 C2.52 6.25 0.54 6.25 -1.5 6.25 C-1.5 6.91 -1.5 7.57 -1.5 8.25 C0.48 7.92 2.46 7.59 4.5 7.25 C4.17 8.24 3.84 9.23 3.5 10.25 C1.1875 10.9375 1.1875 10.9375 -1.5 11.25 C-3.3125 10.1875 -3.3125 10.1875 -4.5 8.25 C-4.8125 5.1875 -4.8125 5.1875 -4.5 2.25 C-2.5 0.25 -2.5 0.25 0 0 Z " fill="#2C6061" transform="translate(135.5,46.75)"/>
<path d="M0 0 C0.33 0 0.66 0 1 0 C1.19214323 4.80509958 1.37088308 9.61043783 1.53710938 14.41650391 C1.59558 16.05205718 1.65773919 17.68748287 1.72363281 19.32275391 C1.8176061 21.67066214 1.89838991 24.01870678 1.9765625 26.3671875 C2.00875885 27.10057343 2.0409552 27.83395935 2.0741272 28.58956909 C2.12756428 30.39242355 2.07280193 32.19782365 2 34 C-0.53229508 36.53229508 -1.85827668 36.42944077 -5.375 36.75 C-6.80972656 36.89695312 -6.80972656 36.89695312 -8.2734375 37.046875 C-11.12873561 36.99778678 -12.59645051 36.48085988 -15 35 C-13.73542969 34.80083984 -13.73542969 34.80083984 -12.4453125 34.59765625 C-11.34960938 34.42105469 -10.25390625 34.24445312 -9.125 34.0625 C-8.03445312 33.88847656 -6.94390625 33.71445312 -5.8203125 33.53515625 C-3.06178454 33.14448841 -3.06178454 33.14448841 -1 32 C-0.67 21.44 -0.34 10.88 0 0 Z " fill="#055455" transform="translate(73,26)"/>
<path d="M0 0 C0.99 1.32 1.98 2.64 3 4 C2.67 3.67 2.34 3.34 2 3 C4.63904371 1.58622659 7.07120629 0.62759865 10 0 C10 2.31 10 4.62 10 7 C5.71 7 1.42 7 -3 7 C-3.33 5.68 -3.66 4.36 -4 3 C-2.68 2.67 -1.36 2.34 0 2 C0 1.34 0 0.68 0 0 Z " fill="#718987" transform="translate(146,67)"/>
<path d="M0 0 C1.953125 0.52083333 3.90625 1.04166667 5.859375 1.5625 C8.28901861 2.13349349 8.28901861 2.13349349 12 2 C12 3.98 12 5.96 12 8 C10.68 8.33 9.36 8.66 8 9 C7.67 8.34 7.34 7.68 7 7 C4.69 7 2.38 7 0 7 C0 4.69 0 2.38 0 0 Z " fill="#637F7F" transform="translate(127,67)"/>
<path d="M0 0 C0.33 0 0.66 0 1 0 C1.33 15.84 1.66 31.68 2 48 C1.01 48 0.02 48 -1 48 C-0.67 32.16 -0.34 16.32 0 0 Z " fill="#004245" transform="translate(9,23)"/>
<path d="M0 0 C1.32 0 2.64 0 4 0 C5.28812401 1.48134261 6.57212515 2.96967821 7.76171875 4.53125 C9.27569114 6.32700274 10.80857144 7.18835979 13 8 C13 9.32 13 10.64 13 12 C7.15662862 10.74784899 4.26897494 7.78100896 1 3 C0.67 2.01 0.34 1.02 0 0 Z " fill="#0E4D50" transform="translate(8,71)"/>
<path d="M0 0 C0.99 0 1.98 0 3 0 C3 0.99 3 1.98 3 3 C3.66 3 4.32 3 5 3 C5 3.66 5 4.32 5 5 C4.34 5 3.68 5 3 5 C3 6.98 3 8.96 3 11 C3.66 11 4.32 11 5 11 C5 11.99 5 12.98 5 14 C3.35 13.67 1.7 13.34 0 13 C0 10.36 0 7.72 0 5 C-0.66 5 -1.32 5 -2 5 C-2 4.34 -2 3.68 -2 3 C-1.34 3 -0.68 3 0 3 C0 2.01 0 1.02 0 0 Z " fill="#2A5D5E" transform="translate(125,44)"/>
<path d="M0 0 C0 1.32 0 2.64 0 4 C-2.94278039 6.28882919 -5.46117205 7.82039068 -9 9 C-9.66 8.34 -10.32 7.68 -11 7 C-9.87720538 6.01830524 -8.75168527 5.03972702 -7.625 4.0625 C-6.68527344 3.24458984 -6.68527344 3.24458984 -5.7265625 2.41015625 C-3.71547429 0.76761588 -2.62199195 0 0 0 Z " fill="#1D5658" transform="translate(21,6)"/>
<path d="M0 0 C0.33 0 0.66 0 1 0 C1 9.9 1 19.8 1 30 C1.99 30 2.98 30 4 30 C4 30.66 4 31.32 4 32 C2.515 32.495 2.515 32.495 1 33 C-1.48363727 29.27454409 -1.16338803 27.57229631 -0.9765625 23.14453125 C-0.95153656 22.48289474 -0.92651062 21.82125824 -0.90072632 21.13957214 C-0.81866907 19.03001566 -0.7220279 16.92141575 -0.625 14.8125 C-0.5667456 13.38089823 -0.50944263 11.9492574 -0.453125 10.51757812 C-0.31311345 7.01119864 -0.16001787 3.50552988 0 0 Z " fill="#045152" transform="translate(19,35)"/>
<path d="M0 0 C0.66 0 1.32 0 2 0 C2 0.66 2 1.32 2 2 C3.98 2 5.96 2 8 2 C8 3.65 8 5.3 8 7 C5.33333333 7 2.66666667 7 0 7 C0 4.69 0 2.38 0 0 Z " fill="#587879" transform="translate(176,67)"/>
<path d="M0 0 C2.31 0.66 4.62 1.32 7 2 C7 3.65 7 5.3 7 7 C5.00045254 7.04254356 2.99958364 7.04080783 1 7 C0 6 0 6 -0.0625 2.9375 C-0.041875 1.968125 -0.02125 0.99875 0 0 Z " fill="#688383" transform="translate(164,67)"/>
<path d="M0 0 C0 0.66 0 1.32 0 2 C-9.41002278 4.29612756 -9.41002278 4.29612756 -14 4 C-13.67 3.01 -13.34 2.02 -13 1 C-8.61414671 0.29826347 -4.44209357 -0.10834375 0 0 Z " fill="#29595A" transform="translate(68,39)"/>
<path d="M0 0 C3.625 0.375 3.625 0.375 7 1 C6.67 2.98 6.34 4.96 6 7 C5.34 5.68 4.68 4.36 4 3 C3.01 3 2.02 3 1 3 C0.34 4.65 -0.32 6.3 -1 8 C-1.33 8 -1.66 8 -2 8 C-2.125 5.125 -2.125 5.125 -2 2 C-1.34 1.34 -0.68 0.68 0 0 Z " fill="#074245" transform="translate(155,47)"/>
<path d="M0 0 C0 0.66 0 1.32 0 2 C-1.5823006 2.33820166 -3.16589375 2.67035939 -4.75 3 C-6.07257812 3.2784375 -6.07257812 3.2784375 -7.421875 3.5625 C-10 4 -10 4 -14 4 C-13.67 3.01 -13.34 2.02 -13 1 C-11.58366664 0.83052421 -10.16691467 0.66454493 -8.75 0.5 C-7.56664062 0.36078125 -7.56664062 0.36078125 -6.359375 0.21875 C-4 0 -4 0 0 0 Z " fill="#205355" transform="translate(68,47)"/>
<path d="M0 0 C1.89213369 2.38573379 3.02391783 4.07175348 4 7 C1.69 7 -0.62 7 -3 7 C-3.33 5.68 -3.66 4.36 -4 3 C-2.68 2.67 -1.36 2.34 0 2 C0 1.34 0 0.68 0 0 Z " fill="#5C7B7C" transform="translate(146,67)"/>
<path d="M0 0 C0.89203125 0.00902344 1.7840625 0.01804687 2.703125 0.02734375 C3.37859375 0.03894531 4.0540625 0.05054687 4.75 0.0625 C4.42 0.7225 4.09 1.3825 3.75 2.0625 C0.80859375 2.4765625 0.80859375 2.4765625 -2.8125 2.6875 C-4.01003906 2.76226562 -5.20757812 2.83703125 -6.44140625 2.9140625 C-7.36824219 2.96304688 -8.29507813 3.01203125 -9.25 3.0625 C-9.25 2.4025 -9.25 1.7425 -9.25 1.0625 C-6.09493858 0.12630187 -3.28413498 -0.0432123 0 0 Z " fill="#14484B" transform="translate(63.25,31.9375)"/>
<path d="M0 0 C0.80824219 0.10183594 1.61648437 0.20367188 2.44921875 0.30859375 C3.06410156 0.39238281 3.67898437 0.47617187 4.3125 0.5625 C2.875 2.125 2.875 2.125 0.3125 3.5625 C-2.74130927 3.53096324 -5.68403222 3.09516629 -8.6875 2.5625 C-6.80760684 -1.19728632 -3.63897564 -0.474649 0 0 Z " fill="#22595A" transform="translate(41.6875,20.4375)"/>
<path d="M0 0 C1.32 0 2.64 0 4 0 C3.34 2.64 2.68 5.28 2 8 C0.68 8.33 -0.64 8.66 -2 9 C-1.34 6.03 -0.68 3.06 0 0 Z " fill="#144D4F" transform="translate(131,22)"/>
<path d="M0 0 C0.66 0.66 1.32 1.32 2 2 C0.41870971 2.22331199 -1.16521089 2.42804644 -2.75 2.625 C-4.07257813 2.79902344 -4.07257813 2.79902344 -5.421875 2.9765625 C-8.22859878 3.00207817 -9.63384866 2.44843844 -12 1 C-7.99047425 -0.33650858 -4.17983803 -0.20225023 0 0 Z " fill="#09494B" transform="translate(70,60)"/>
<path d="M0 0 C4.16138263 -0.08159574 7.9472484 0.01751476 12 1 C12 1.66 12 2.32 12 3 C3.42857143 3.14285714 3.42857143 3.14285714 0 2 C0 1.34 0 0.68 0 0 Z " fill="#1B4E50" transform="translate(31,37)"/>
<path d="M0 0 C8.57142857 -0.14285714 8.57142857 -0.14285714 12 1 C12 1.66 12 2.32 12 3 C7.83861737 3.08159574 4.0527516 2.98248524 0 2 C0 1.34 0 0.68 0 0 Z " fill="#1C5052" transform="translate(31,31)"/>
<path d="M0 0 C8.57142857 -0.28571429 8.57142857 -0.28571429 12 2 C7.62426048 2.59332061 3.42471556 3.13827236 -1 3 C-0.67 2.01 -0.34 1.02 0 0 Z " fill="#064447" transform="translate(25,19)"/>
<path d="M0 0 C1.98 0.495 1.98 0.495 4 1 C3.67 2.65 3.34 4.3 3 6 C1.68 5.67 0.36 5.34 -1 5 C-0.67 3.35 -0.34 1.7 0 0 Z " fill="#F1EFE3" transform="translate(145,49)"/>
<path d="M0 0 C0.99 0.33 1.98 0.66 3 1 C1.515 4.96 1.515 4.96 0 9 C-0.66 9 -1.32 9 -2 9 C-2.25 3.375 -2.25 3.375 0 0 Z " fill="#05484B" transform="translate(10,14)"/>
<path d="M0 0 C2.31 0.66 4.62 1.32 7 2 C6.34 3.32 5.68 4.64 5 6 C3.02 5.01 1.04 4.02 -1 3 C-0.67 2.01 -0.34 1.02 0 0 Z " fill="#185355" transform="translate(75,6)"/>
<path d="M0 0 C2.475 0.99 2.475 0.99 5 2 C5 3.32 5 4.64 5 6 C2.97954558 5.39816251 0.97888961 4.72693904 -1 4 C-1.33 3.34 -1.66 2.68 -2 2 C-1.34 2 -0.68 2 0 2 C0 1.34 0 0.68 0 0 Z " fill="#1D5658" transform="translate(16,77)"/>
<path d="M0 0 C0.33 0.66 0.66 1.32 1 2 C2.98 1.67 4.96 1.34 7 1 C6.67 1.99 6.34 2.98 6 4 C1.25 5.125 1.25 5.125 -1 4 C-0.67 2.68 -0.34 1.36 0 0 Z " fill="#386364" transform="translate(133,53)"/>
<path d="M0 0 C0.99 0.33 1.98 0.66 3 1 C3 2.65 3 4.3 3 6 C1.68 6 0.36 6 -1 6 C-1.042721 4.33388095 -1.04063832 2.66617115 -1 1 C-0.67 0.67 -0.34 0.34 0 0 Z " fill="#FBF9EE" transform="translate(168,49)"/>
<path d="M0 0 C1.32 0.33 2.64 0.66 4 1 C3.67 2.65 3.34 4.3 3 6 C2.01 6 1.02 6 0 6 C0 4.02 0 2.04 0 0 Z " fill="#FAF7EA" transform="translate(156,49)"/>
<path d="M0 0 C0.99 0.33 1.98 0.66 3 1 C3 2.65 3 4.3 3 6 C1.68 6 0.36 6 -1 6 C-1.042721 4.33388095 -1.04063832 2.66617115 -1 1 C-0.67 0.67 -0.34 0.34 0 0 Z " fill="#FBF8EE" transform="translate(117,49)"/>
<path d="M0 0 C0.66 0 1.32 0 2 0 C2.33 3.3 2.66 6.6 3 10 C2.01 10 1.02 10 0 10 C0 6.7 0 3.4 0 0 Z " fill="#004345" transform="translate(176,42)"/>
<path d="M0 0 C2.31 0 4.62 0 7 0 C7 0.99 7 1.98 7 3 C5.1875 3.625 5.1875 3.625 3 4 C2.01 3.34 1.02 2.68 0 2 C0 1.34 0 0.68 0 0 Z " fill="#295D5F" transform="translate(143,54)"/>
<path d="M0 0 C0.99 0.33 1.98 0.66 3 1 C3.33 2.98 3.66 4.96 4 7 C2.68 7 1.36 7 0 7 C0 4.69 0 2.38 0 0 Z " fill="#8A9E9B" transform="translate(127,67)"/>
<path d="M0 0 C3.465 1.485 3.465 1.485 7 3 C4.4345406 5.5654594 2.52313332 5.54046087 -1 6 C-0.67 4.02 -0.34 2.04 0 0 Z " fill="#7ED2C2" transform="translate(22,59)"/>
<path d="M0 0 C0.66 0 1.32 0 2 0 C2.33 0.66 2.66 1.32 3 2 C3.99 2.33 4.98 2.66 6 3 C6 3.66 6 4.32 6 5 C3.03 4.67 0.06 4.34 -3 4 C-2.34 3.67 -1.68 3.34 -1 3 C-0.67 2.01 -0.34 1.02 0 0 Z " fill="#EDECDF" transform="translate(34,33)"/>
<path d="M0 0 C2.62187494 1.04874998 3.79371361 1.64931313 5.25 4.125 C5.4975 4.74375 5.745 5.3625 6 6 C3.13275314 5.42655063 2.1385485 5.1385485 0 3 C0 2.01 0 1.02 0 0 Z " fill="#014446" transform="translate(81,9)"/>
<path d="M0 0 C1.32 0 2.64 0 4 0 C4 1.65 4 3.3 4 5 C2.68 4.67 1.36 4.34 0 4 C0 2.68 0 1.36 0 0 Z " fill="#567373" transform="translate(107,69)"/>
<path d="M0 0 C0.66 1.32 1.32 2.64 2 4 C0.02 4.99 0.02 4.99 -2 6 C-2.66 5.34 -3.32 4.68 -4 4 C-2.68 2.68 -1.36 1.36 0 0 Z " fill="#175052" transform="translate(14,9)"/>
<path d="M0 0 C0.66 0.33 1.32 0.66 2 1 C1.34 2.32 0.68 3.64 0 5 C-1.32 5 -2.64 5 -4 5 C-3.67 4.01 -3.34 3.02 -3 2 C-2.01 2 -1.02 2 0 2 C0 1.34 0 0.68 0 0 Z " fill="#2D5E60" transform="translate(120,53)"/>
<path d="M0 0 C0.66 0 1.32 0 2 0 C1.625 2.9375 1.625 2.9375 1 6 C0.01 6.495 0.01 6.495 -1 7 C-1.99 6.34 -2.98 5.68 -4 5 C-2.68 4.67 -1.36 4.34 0 4 C0 2.68 0 1.36 0 0 Z " fill="#285E5F" transform="translate(161,50)"/>
</svg>
